<svg width="2833" height="1442" viewBox="0 0 2833 1442" fill="none" xmlns="http://www.w3.org/2000/svg">
<g clip-path="url(#clip0_2122_15123)">
<path d="M0 1002.47H79.7242L127.632 1142.2C130.711 1151.07 133.442 1161.32 134.468 1165.77C135.495 1161.34 137.547 1151.07 140.626 1142.2L189.891 1002.47H268.936V1221.1H213.166V1071.13L161.153 1221.1H108.114L55.0746 1071.13V1221.1H0V1002.47Z" fill="white"/>
<path d="M442.736 1002.47H512.545L589.869 1221.1H531.698L519.712 1183.54H435.552L423.566 1221.1H365.396L442.719 1002.47H442.736ZM507.744 1142.88L477.284 1050.65L447.52 1142.88H507.744Z" fill="white"/>
<path d="M723.988 1047.56H668.896V1002.47H833.824V1047.56H778.733V1221.1H723.988V1047.56Z" fill="white"/>
<path d="M822.535 1133.65C822.535 1088.22 841.009 1043.81 910.122 1043.81C979.235 1043.81 997.709 1088.22 997.709 1133.65C997.709 1179.09 978.887 1224.18 909.774 1224.18C840.661 1224.18 822.535 1178.74 822.535 1133.65ZM909.774 1179.42C937.485 1179.42 946.392 1161.67 946.392 1133.65C946.392 1105.64 938.512 1088.22 910.122 1088.22C881.732 1088.22 874.2 1105.99 874.2 1133.65C874.2 1161.32 883.107 1179.42 909.792 1179.42H909.774Z" fill="white"/>
<path d="M1022.69 1145.27V1046.88H1076.06V1146.98C1076.06 1170.54 1080.84 1180.46 1105.14 1180.46C1129.45 1180.46 1135.59 1169.54 1135.59 1145.6V1046.88H1189.3V1221.11H1165.02L1152.7 1198.21C1143.12 1211.88 1125.32 1224.18 1091.12 1224.18C1033.3 1224.18 1022.69 1191.73 1022.69 1145.27Z" fill="white"/>
<path d="M1223.87 1046.88H1248.15L1259.1 1071.8C1270.04 1054.04 1286.81 1040.04 1323.42 1044.14V1090.6C1283.4 1086.48 1277.24 1108.02 1277.24 1137.39V1221.09H1223.87V1046.86V1046.88Z" fill="white"/>
<path d="M1418.54 1153.12C1418.54 1118.96 1446.93 1101.19 1469.86 1094.37L1430.16 1055.08V1002.47H1581.4V1048.23H1490.04L1556.77 1123.41C1558.47 1113.84 1558.82 1089.24 1558.82 1075.92H1611.51C1611.51 1113.51 1603.3 1140.5 1594.07 1161.34L1649.84 1221.12H1586.53L1566.69 1198.58C1550.26 1214.3 1527.34 1224.21 1502.7 1224.21C1442.48 1224.21 1418.54 1190.73 1418.54 1153.16V1153.12ZM1501.7 1178.41C1511.96 1178.41 1525.98 1176.02 1535.23 1167.82L1499.31 1129.9C1481.52 1132.63 1472.96 1142.2 1472.96 1153.82C1472.96 1168.17 1481.17 1178.41 1501.7 1178.41Z" fill="white"/>
<path d="M1779.17 1047.56H1724.08V1002.47H1889.01V1047.56H1833.92V1221.1H1779.17V1047.56Z" fill="white"/>
<path d="M1898.92 1046.88H1923.21L1934.15 1071.8C1945.09 1054.04 1961.86 1040.04 1998.48 1044.14V1090.6C1958.45 1086.48 1952.29 1108.02 1952.29 1137.39V1221.09H1898.92V1046.86V1046.88Z" fill="white"/>
<path d="M2005.68 1170.54C2005.68 1137.08 2028.61 1123.06 2077.54 1117.93L2123.38 1113.14C2123.38 1089.9 2115.87 1082.4 2092.59 1082.4C2070.69 1082.4 2064.53 1092.65 2064.53 1106.65H2012.52C2012.52 1069.41 2027.57 1043.79 2091.22 1043.79C2165.81 1043.79 2176.75 1077.26 2176.75 1122.36V1221.1H2152.8L2140.13 1193.77C2128.16 1213.58 2109.34 1224.18 2078.2 1224.18C2037.15 1224.18 2005.66 1207.09 2005.66 1170.54H2005.68ZM2089.16 1186.61C2113.12 1186.61 2123.73 1172.61 2123.38 1148.02L2089.16 1152.1C2067.96 1154.5 2061.45 1160.3 2061.45 1168.5C2061.45 1179.09 2069.66 1186.61 2089.16 1186.61Z" fill="white"/>
<path d="M2181.55 1046.88H2240.4L2281.12 1173.27L2323.55 1046.88H2384.8L2311.24 1221.11H2251.36L2181.55 1046.88Z" fill="white"/>
<path d="M2385.13 1134C2385.13 1088.91 2402.93 1043.81 2474.77 1043.81C2541.83 1043.81 2558.6 1089.24 2558.6 1135.03C2558.6 1140.15 2558.6 1145.27 2557.92 1150.4H2438.85C2439.2 1173.64 2450.14 1186.61 2473.4 1186.61C2492.9 1186.61 2501.11 1178.41 2503.16 1168.5H2558.93C2555.85 1200.61 2528.82 1224.2 2475.78 1224.2C2402.56 1224.2 2385.12 1179.79 2385.12 1134H2385.13ZM2503.18 1114.86C2503.18 1096.75 2494.62 1082.75 2472.04 1082.75C2450.84 1082.75 2439.2 1092.99 2439.2 1114.86H2503.18Z" fill="white"/>
<path d="M2586.31 979.576H2639.68V1221.11H2586.31V979.576Z" fill="white"/>
<path d="M2665.34 1158.25H2717.01C2717.01 1174.64 2724.54 1185.59 2751.22 1185.59C2772.45 1185.59 2779.96 1178.08 2779.96 1169.19C2779.96 1142.2 2668.07 1161.34 2668.07 1099.84C2668.07 1068.75 2691 1043.81 2748.48 1043.81C2805.95 1043.81 2826.83 1065.33 2826.83 1106.66H2777.56C2777.56 1091.29 2770.38 1081.37 2748.48 1081.37C2727.95 1081.37 2721.79 1087.19 2721.79 1096.75C2721.79 1123.39 2832.98 1102.89 2832.98 1168.48C2832.98 1195.12 2810.06 1224.18 2752.91 1224.18C2691.66 1224.18 2665.32 1206.06 2665.32 1158.25H2665.34Z" fill="white"/>
<path d="M424.836 1326.88C426.924 1328.36 428.089 1329.75 428.333 1331.03C428.576 1332.32 428.054 1333.85 426.767 1335.63L391.802 1388.66V1423.55C391.802 1424.84 391.663 1426.02 391.35 1427.05C391.054 1428.09 390.428 1428.89 389.488 1429.43C388.549 1429.96 387.088 1430.24 385.104 1430.24C383.121 1430.24 381.66 1429.96 380.721 1429.43C379.781 1428.89 379.138 1428.07 378.79 1426.98C378.442 1425.88 378.268 1424.65 378.268 1423.26V1388.5L343.164 1335.93C341.981 1334.14 341.528 1332.59 341.824 1331.26C342.12 1329.92 343.32 1328.51 345.39 1327.02C346.869 1326.03 348.139 1325.42 349.182 1325.16C350.226 1324.92 351.183 1325.06 352.088 1325.61C352.992 1326.15 353.827 1327.12 354.61 1328.5L384.965 1376.03L415.46 1328.5C416.347 1327.11 417.217 1326.17 418.052 1325.68C418.887 1325.2 419.861 1325.02 420.957 1325.16C422.053 1325.3 423.34 1325.89 424.819 1326.86L424.836 1326.88Z" fill="white"/>
<path d="M487.617 1431.14C480.571 1431.14 473.961 1429.81 467.751 1427.13C461.541 1424.46 456.096 1420.72 451.382 1415.91C446.667 1411.12 442.98 1405.6 440.301 1399.34C437.622 1393.11 436.282 1386.37 436.282 1379.14C436.282 1371.92 437.57 1364.9 440.144 1358.42C442.719 1351.94 446.32 1346.26 450.929 1341.42C455.539 1336.56 460.88 1332.75 466.916 1329.97C472.97 1327.21 479.406 1325.82 486.26 1325.82C493.114 1325.82 500.072 1327.16 506.265 1329.83C512.458 1332.51 517.868 1336.26 522.478 1341.05C527.087 1345.86 530.741 1351.47 533.419 1357.92C536.098 1364.36 537.438 1371.24 537.438 1378.57C537.438 1385.9 536.116 1392.55 533.506 1398.86C530.88 1405.14 527.279 1410.74 522.721 1415.63C518.163 1420.53 512.875 1424.34 506.874 1427.06C500.872 1429.79 494.453 1431.14 487.617 1431.14ZM486.73 1417.63C491.879 1417.63 496.715 1416.64 501.238 1414.66C505.76 1412.68 509.692 1409.89 513.067 1406.27C516.441 1402.66 519.085 1398.49 521.016 1393.8C522.947 1389.11 523.921 1383.97 523.921 1378.43C523.921 1372.89 522.965 1368.06 521.016 1363.35C519.085 1358.65 516.407 1354.5 512.98 1350.88C509.553 1347.27 505.621 1344.42 501.151 1342.34C496.68 1340.27 491.931 1339.23 486.869 1339.23C481.807 1339.23 477.058 1340.27 472.587 1342.34C468.116 1344.42 464.185 1347.24 460.758 1350.81C457.331 1354.38 454.652 1358.53 452.721 1363.29C450.79 1368.03 449.816 1373.13 449.816 1378.59C449.816 1384.04 450.773 1388.99 452.721 1393.73C454.652 1398.49 457.331 1402.64 460.758 1406.2C464.185 1409.76 468.099 1412.58 472.517 1414.59C476.936 1416.62 481.667 1417.63 486.73 1417.63Z" fill="white"/>
<path d="M594.131 1430.55C587.486 1430.55 581.554 1429.39 576.352 1427.06C571.151 1424.74 566.733 1421.47 563.114 1417.27C559.496 1413.06 556.747 1408.06 554.851 1402.26C552.973 1396.48 552.033 1390.15 552.033 1383.33V1333.12C552.033 1331.73 552.207 1330.55 552.555 1329.56C552.903 1328.57 553.547 1327.8 554.486 1327.26C555.425 1326.72 556.887 1326.45 558.87 1326.45C560.853 1326.45 562.349 1326.72 563.323 1327.26C564.314 1327.8 564.958 1328.58 565.254 1329.56C565.55 1330.55 565.706 1331.78 565.706 1333.27V1383.33C565.706 1389.96 566.802 1395.8 568.977 1400.85C571.151 1405.89 574.369 1409.89 578.649 1412.8C582.91 1415.72 588.216 1417.18 594.566 1417.18C600.515 1417.18 605.629 1415.79 609.891 1413.03C614.153 1410.25 617.423 1406.34 619.702 1401.29C621.981 1396.23 623.129 1390.21 623.129 1383.17V1332.21C623.129 1331.03 623.303 1330.01 623.651 1329.17C623.999 1328.34 624.66 1327.66 625.652 1327.18C626.643 1326.69 628.122 1326.45 630.122 1326.45C632.001 1326.45 633.41 1326.72 634.367 1327.26C635.306 1327.8 635.932 1328.58 636.228 1329.56C636.524 1330.55 636.663 1331.78 636.663 1333.27V1383.62C636.663 1390.55 635.724 1396.86 633.845 1402.56C631.966 1408.25 629.2 1413.2 625.582 1417.41C621.964 1421.63 617.493 1424.86 612.187 1427.13C606.882 1429.41 600.863 1430.54 594.113 1430.54L594.131 1430.55Z" fill="white"/>
<path d="M665.244 1430.1C663.365 1430.1 661.921 1429.82 660.93 1429.29C659.938 1428.75 659.312 1427.95 659.068 1426.91C658.825 1425.86 658.703 1424.65 658.703 1423.28V1332.98C658.703 1331.69 658.877 1330.56 659.225 1329.64C659.573 1328.7 660.217 1327.94 661.156 1327.33C662.095 1326.74 663.522 1326.45 665.4 1326.45H698.278C703.132 1326.45 707.567 1327.16 711.586 1328.6C715.604 1330.04 719.101 1332.14 722.075 1334.9C725.05 1337.68 727.364 1341.17 728.999 1345.38C730.634 1349.58 731.452 1354.46 731.452 1360C731.452 1363.48 730.912 1367.05 729.816 1370.77C728.721 1374.49 727.068 1377.98 724.841 1381.24C722.615 1384.51 719.762 1387.24 716.283 1389.41C712.804 1391.6 708.594 1392.83 703.636 1393.12H672.098V1423.42C672.098 1424.81 671.924 1425.99 671.576 1426.98C671.228 1427.97 670.584 1428.73 669.645 1429.27C668.706 1429.81 667.244 1430.09 665.261 1430.09L665.244 1430.1ZM672.098 1380.05H701.566C703.845 1380.05 705.984 1379.63 707.968 1378.8C709.951 1377.96 711.69 1376.69 713.169 1375.01C714.647 1373.32 715.848 1371.24 716.735 1368.77C717.622 1366.31 718.074 1363.32 718.074 1359.86C718.074 1355.61 717.309 1352 715.761 1349.03C714.23 1346.06 711.969 1343.8 708.994 1342.27C706.019 1340.74 702.349 1339.98 697.982 1339.98H672.098V1380.08V1380.05ZM729.068 1428.47C726.981 1429.86 725.224 1430.29 723.78 1429.81C722.336 1429.3 720.979 1428.12 719.692 1426.25L695.895 1388.23L710.629 1386L731.156 1418.67C732.147 1420.25 732.774 1421.59 733.017 1422.69C733.261 1423.78 733.069 1424.75 732.426 1425.66C731.782 1426.54 730.669 1427.48 729.086 1428.47H729.068Z" fill="white"/>
<path d="M814.463 1430.55C811.575 1430.55 808.775 1430.21 806.061 1429.53C803.33 1428.84 800.825 1427.95 798.546 1426.86C796.267 1425.76 794.232 1424.58 792.44 1423.29C790.666 1422.01 789.17 1420.78 787.987 1419.58C786.891 1418.5 785.986 1417.51 785.238 1416.61C784.49 1415.7 784.125 1414.87 784.125 1414.09C784.125 1413.2 784.421 1412.28 785.012 1411.34C785.604 1410.41 786.247 1409.59 786.943 1408.88C788.039 1407.8 788.944 1407.07 789.692 1406.72C790.44 1406.38 791.153 1406.2 791.849 1406.2C793.24 1406.2 794.354 1406.66 795.189 1407.54C796.024 1408.44 797.293 1409.68 798.981 1411.26C799.972 1411.95 801.26 1412.79 802.843 1413.78C804.426 1414.77 806.27 1415.63 808.34 1416.36C810.427 1417.11 812.654 1417.49 815.037 1417.49C818.307 1417.49 821.143 1416.89 823.526 1415.7C825.909 1414.52 827.858 1412.84 829.406 1410.67C830.937 1408.48 832.102 1405.94 832.902 1403.03C833.703 1400.11 834.085 1396.96 834.085 1393.59V1334.33C834.085 1332.75 834.242 1331.34 834.538 1330.18C834.833 1329 835.512 1328.08 836.538 1327.44C837.582 1326.79 839.095 1326.48 841.078 1326.48C842.957 1326.48 844.349 1326.76 845.236 1327.3C846.123 1327.84 846.714 1328.64 847.01 1329.68C847.306 1330.7 847.462 1331.94 847.462 1333.31V1394.79C847.462 1400.04 846.749 1404.85 845.305 1409.21C843.862 1413.57 841.757 1417.34 838.991 1420.5C836.207 1423.66 832.763 1426.14 828.64 1427.91C824.518 1429.7 819.786 1430.59 814.446 1430.59L814.463 1430.55Z" fill="white"/>
<path d="M914.297 1431.14C907.252 1431.14 900.642 1429.81 894.432 1427.13C888.221 1424.46 882.777 1420.72 878.062 1415.91C873.348 1411.12 869.66 1405.6 866.981 1399.34C864.302 1393.11 862.963 1386.37 862.963 1379.14C862.963 1371.92 864.25 1364.9 866.825 1358.42C869.399 1351.94 873 1346.26 877.61 1341.42C882.22 1336.56 887.56 1332.75 893.597 1329.97C899.65 1327.21 906.087 1325.82 912.941 1325.82C919.794 1325.82 926.753 1327.16 932.946 1329.83C939.138 1332.51 944.548 1336.26 949.158 1341.05C953.768 1345.86 957.421 1351.47 960.1 1357.92C962.779 1364.36 964.118 1371.24 964.118 1378.57C964.118 1385.9 962.796 1392.55 960.187 1398.86C957.56 1405.14 953.959 1410.74 949.402 1415.63C944.844 1420.53 939.556 1424.34 933.554 1427.06C927.553 1429.79 921.134 1431.14 914.297 1431.14ZM913.393 1417.63C918.542 1417.63 923.378 1416.64 927.901 1414.66C932.424 1412.68 936.355 1409.89 939.73 1406.27C943.105 1402.66 945.749 1398.49 947.68 1393.8C949.611 1389.11 950.585 1383.97 950.585 1378.43C950.585 1372.89 949.628 1368.06 947.68 1363.35C945.749 1358.65 943.07 1354.5 939.643 1350.88C936.216 1347.27 932.284 1344.42 927.814 1342.34C923.343 1340.27 918.594 1339.23 913.532 1339.23C908.47 1339.23 903.721 1340.27 899.25 1342.34C894.78 1344.42 890.848 1347.24 887.421 1350.81C883.994 1354.38 881.315 1358.53 879.384 1363.29C877.453 1368.03 876.479 1373.13 876.479 1378.59C876.479 1384.04 877.436 1388.99 879.384 1393.73C881.315 1398.49 883.994 1402.64 887.421 1406.2C890.848 1409.76 894.762 1412.58 899.181 1414.59C903.599 1416.62 908.331 1417.63 913.393 1417.63Z" fill="white"/>
<path d="M1020.81 1430.55C1014.17 1430.55 1008.23 1429.39 1003.03 1427.06C997.831 1424.74 993.412 1421.47 989.794 1417.27C986.176 1413.06 983.427 1408.06 981.531 1402.26C979.652 1396.48 978.713 1390.15 978.713 1383.33V1333.12C978.713 1331.73 978.887 1330.55 979.235 1329.56C979.583 1328.57 980.226 1327.8 981.166 1327.26C982.105 1326.72 983.566 1326.45 985.549 1326.45C987.532 1326.45 989.028 1326.72 990.003 1327.26C990.994 1327.8 991.638 1328.58 991.934 1329.56C992.229 1330.55 992.386 1331.78 992.386 1333.27V1383.33C992.386 1389.96 993.482 1395.8 995.656 1400.85C997.831 1405.89 1001.05 1409.89 1005.33 1412.8C1009.59 1415.72 1014.9 1417.18 1021.25 1417.18C1027.19 1417.18 1032.31 1415.79 1036.57 1413.03C1040.83 1410.25 1044.1 1406.34 1046.38 1401.29C1048.66 1396.23 1049.81 1390.21 1049.81 1383.17V1332.21C1049.81 1331.03 1049.98 1330.01 1050.33 1329.17C1050.68 1328.34 1051.34 1327.66 1052.33 1327.18C1053.32 1326.69 1054.8 1326.45 1056.8 1326.45C1058.68 1326.45 1060.09 1326.72 1061.05 1327.26C1061.99 1327.8 1062.61 1328.58 1062.91 1329.56C1063.2 1330.55 1063.34 1331.78 1063.34 1333.27V1383.62C1063.34 1390.55 1062.4 1396.86 1060.52 1402.56C1058.65 1408.25 1055.88 1413.2 1052.26 1417.41C1048.64 1421.63 1044.17 1424.86 1038.87 1427.13C1033.56 1429.41 1027.54 1430.54 1020.79 1430.54L1020.81 1430.55Z" fill="white"/>
<path d="M1091.92 1430.1C1090.04 1430.1 1088.6 1429.82 1087.61 1429.29C1086.62 1428.75 1085.99 1427.95 1085.75 1426.91C1085.5 1425.86 1085.38 1424.65 1085.38 1423.28V1332.98C1085.38 1331.69 1085.56 1330.56 1085.9 1329.64C1086.25 1328.7 1086.9 1327.94 1087.84 1327.33C1088.77 1326.74 1090.2 1326.45 1092.08 1326.45H1124.96C1129.81 1326.45 1134.25 1327.16 1138.27 1328.6C1142.28 1330.04 1145.78 1332.14 1148.76 1334.9C1151.73 1337.68 1154.04 1341.17 1155.68 1345.38C1157.31 1349.58 1158.13 1354.46 1158.13 1360C1158.13 1363.48 1157.59 1367.05 1156.5 1370.77C1155.4 1374.49 1153.75 1377.98 1151.52 1381.24C1149.29 1384.51 1146.44 1387.24 1142.96 1389.41C1139.48 1391.6 1135.27 1392.83 1130.32 1393.12H1098.78V1423.42C1098.78 1424.81 1098.6 1425.99 1098.26 1426.98C1097.91 1427.97 1097.26 1428.73 1096.32 1429.27C1095.39 1429.81 1093.92 1430.09 1091.94 1430.09L1091.92 1430.1ZM1098.76 1380.05H1128.23C1130.51 1380.05 1132.65 1379.63 1134.63 1378.8C1136.61 1377.96 1138.35 1376.69 1139.83 1375.01C1141.31 1373.32 1142.51 1371.24 1143.4 1368.77C1144.28 1366.31 1144.74 1363.32 1144.74 1359.86C1144.74 1355.61 1143.97 1352 1142.42 1349.03C1140.89 1346.06 1138.63 1343.8 1135.66 1342.27C1132.68 1340.74 1129.01 1339.98 1124.64 1339.98H1098.76V1380.08V1380.05ZM1155.75 1428.47C1153.66 1429.86 1151.9 1430.29 1150.46 1429.81C1149.02 1429.3 1147.66 1428.12 1146.37 1426.25L1122.57 1388.23L1137.31 1386L1157.84 1418.67C1158.83 1420.25 1159.45 1421.59 1159.7 1422.69C1159.94 1423.78 1159.75 1424.75 1159.11 1425.66C1158.46 1426.54 1157.35 1427.48 1155.77 1428.47H1155.75Z" fill="white"/>
<path d="M1182.97 1430.1C1181.28 1430.1 1179.96 1429.81 1179.02 1429.2C1178.08 1428.61 1177.44 1427.79 1177.09 1426.75C1176.74 1425.71 1176.57 1424.49 1176.57 1423.12V1332.65C1176.57 1331.36 1176.76 1330.28 1177.16 1329.38C1177.56 1328.48 1178.28 1327.77 1179.32 1327.23C1180.36 1326.69 1181.82 1326.41 1183.7 1326.41C1185.88 1326.41 1187.43 1326.6 1188.31 1327C1189.22 1327.4 1190.1 1328.1 1190.99 1329.09L1246.94 1408.11V1332.65C1246.94 1331.36 1247.11 1330.28 1247.46 1329.38C1247.81 1328.48 1248.48 1327.77 1249.46 1327.23C1250.43 1326.69 1251.89 1326.41 1253.77 1326.41C1255.55 1326.41 1256.92 1326.71 1257.86 1327.3C1258.8 1327.9 1259.44 1328.72 1259.79 1329.76C1260.14 1330.81 1260.31 1331.97 1260.31 1333.25V1423.26C1260.31 1424.54 1260.09 1425.71 1259.65 1426.75C1259.22 1427.79 1258.47 1428.61 1257.43 1429.2C1256.38 1429.81 1254.92 1430.1 1253.04 1430.1C1251.46 1430.1 1250.14 1429.91 1249.09 1429.51C1248.05 1429.11 1247.09 1428.37 1246.19 1427.29L1189.95 1348.85V1423.28C1189.95 1424.56 1189.74 1425.73 1189.36 1426.77C1188.96 1427.81 1188.26 1428.63 1187.27 1429.22C1186.28 1429.82 1184.83 1430.12 1182.95 1430.12L1182.97 1430.1Z" fill="white"/>
<path d="M1290.23 1430.1C1288.25 1430.1 1286.79 1429.82 1285.85 1429.29C1284.91 1428.75 1284.28 1427.95 1283.99 1426.91C1283.69 1425.86 1283.55 1424.65 1283.55 1423.28V1333.12C1283.55 1330.55 1284.08 1328.77 1285.12 1327.84C1286.16 1326.9 1288.02 1326.43 1290.7 1326.43H1350.51C1351.9 1326.43 1353.08 1326.57 1354.08 1326.86C1355.07 1327.16 1355.82 1327.8 1356.3 1328.81C1356.79 1329.8 1357.05 1331.27 1357.05 1333.25C1357.05 1335.23 1356.77 1336.69 1356.23 1337.63C1355.69 1338.57 1354.91 1339.18 1353.94 1339.47C1352.94 1339.79 1351.76 1339.92 1350.37 1339.92H1296.97V1370.67H1334.16C1335.55 1370.67 1336.71 1370.81 1337.65 1371.12C1338.59 1371.41 1339.31 1372 1339.81 1372.89C1340.32 1373.78 1340.56 1375.17 1340.56 1377.04C1340.56 1378.81 1340.32 1380.15 1339.81 1381.05C1339.31 1381.96 1338.58 1382.51 1337.58 1382.76C1336.59 1383 1335.36 1383.14 1333.86 1383.14H1296.97V1416.69H1350.53C1351.92 1416.69 1353.1 1416.83 1354.09 1417.15C1355.08 1417.44 1355.83 1418.07 1356.32 1418.99C1356.81 1419.92 1357.07 1421.4 1357.07 1423.36C1357.07 1425.33 1356.79 1426.8 1356.25 1427.74C1355.71 1428.68 1354.93 1429.3 1353.95 1429.6C1352.96 1429.89 1351.78 1430.03 1350.39 1430.03H1290.29L1290.23 1430.1Z" fill="white"/>
<path d="M1452.24 1326.88C1454.33 1328.36 1455.49 1329.75 1455.74 1331.03C1455.98 1332.32 1455.46 1333.85 1454.17 1335.63L1419.21 1388.66V1423.55C1419.21 1424.84 1419.07 1426.02 1418.75 1427.05C1418.46 1428.09 1417.83 1428.89 1416.89 1429.43C1415.95 1429.96 1414.49 1430.24 1412.51 1430.24C1410.52 1430.24 1409.06 1429.96 1408.12 1429.43C1407.18 1428.89 1406.54 1428.07 1406.19 1426.98C1405.85 1425.88 1405.67 1424.65 1405.67 1423.26V1388.5L1370.57 1335.93C1369.38 1334.14 1368.93 1332.59 1369.23 1331.26C1369.52 1329.92 1370.72 1328.51 1372.79 1327.02C1374.27 1326.03 1375.54 1325.42 1376.59 1325.16C1377.63 1324.92 1378.59 1325.06 1379.49 1325.61C1380.4 1326.15 1381.23 1327.12 1382.01 1328.5L1412.37 1376.03L1442.86 1328.5C1443.75 1327.11 1444.62 1326.17 1445.46 1325.68C1446.29 1325.2 1447.26 1325.02 1448.36 1325.16C1449.46 1325.3 1450.74 1325.89 1452.22 1326.86L1452.24 1326.88Z" fill="white"/>
<path d="M1470.38 1442C1469.79 1441.81 1469.34 1441.48 1469.04 1441.05C1468.75 1440.59 1468.59 1439.83 1468.59 1438.74C1468.59 1437.15 1468.82 1436.16 1469.25 1435.77C1469.69 1435.37 1470.02 1435.17 1470.21 1435.17C1470.21 1435.07 1470.75 1434.6 1471.84 1433.75C1472.94 1432.92 1473.58 1431.41 1473.78 1429.22C1472.98 1429.11 1472.28 1428.92 1471.69 1428.63C1471.1 1428.33 1470.56 1427.93 1470.05 1427.45C1469.25 1426.75 1468.82 1425.85 1468.71 1424.7C1468.61 1423.56 1468.57 1422.5 1468.57 1421.51C1468.57 1420.22 1468.68 1418.99 1468.87 1417.79C1469.06 1416.59 1469.7 1415.63 1470.8 1414.89C1471.9 1414.16 1473.78 1413.78 1476.45 1413.78C1479.43 1413.78 1481.52 1414.38 1482.7 1415.55C1483.4 1416.24 1483.81 1417.15 1483.97 1418.22C1484.11 1419.32 1484.2 1420.45 1484.2 1421.64V1423.28C1484.2 1423.78 1484.09 1424.32 1483.9 1424.91C1483.71 1427.88 1482.96 1430.68 1481.67 1433.3C1480.39 1435.92 1478.75 1438.02 1476.77 1439.6C1474.78 1441.18 1472.64 1441.98 1470.37 1441.98L1470.38 1442Z" fill="white"/>
<path d="M1586.27 1431.14C1579.23 1431.14 1572.62 1429.81 1566.41 1427.13C1560.2 1424.46 1554.75 1420.72 1550.04 1415.91C1545.32 1411.12 1541.64 1405.6 1538.96 1399.34C1536.28 1393.11 1534.94 1386.37 1534.94 1379.14C1534.94 1371.92 1536.23 1364.9 1538.8 1358.42C1541.37 1351.94 1544.98 1346.26 1549.59 1341.42C1554.2 1336.56 1559.54 1332.75 1565.57 1329.97C1571.63 1327.21 1578.06 1325.82 1584.92 1325.82C1591.77 1325.82 1598.73 1327.16 1604.92 1329.83C1611.11 1332.51 1616.52 1336.26 1621.13 1341.05C1625.74 1345.86 1629.4 1351.47 1632.08 1357.92C1634.75 1364.36 1636.09 1371.24 1636.09 1378.57C1636.09 1385.9 1634.77 1392.55 1632.16 1398.86C1629.54 1405.14 1625.94 1410.74 1621.38 1415.63C1616.82 1420.53 1611.53 1424.34 1605.53 1427.06C1599.53 1429.79 1593.11 1431.14 1586.27 1431.14ZM1585.39 1417.63C1590.53 1417.63 1595.37 1416.64 1599.89 1414.66C1604.42 1412.68 1608.35 1409.89 1611.72 1406.27C1615.1 1402.66 1617.74 1398.49 1619.67 1393.8C1621.6 1389.11 1622.58 1383.97 1622.58 1378.43C1622.58 1372.89 1621.62 1368.06 1619.67 1363.35C1617.74 1358.65 1615.06 1354.5 1611.64 1350.88C1608.21 1347.27 1604.28 1344.42 1599.81 1342.34C1595.34 1340.27 1590.59 1339.23 1585.52 1339.23C1580.46 1339.23 1575.71 1340.27 1571.24 1342.34C1566.77 1344.42 1562.84 1347.24 1559.41 1350.81C1555.99 1354.38 1553.31 1358.53 1551.38 1363.29C1549.45 1368.03 1548.47 1373.13 1548.47 1378.59C1548.47 1384.04 1549.43 1388.99 1551.38 1393.73C1553.31 1398.49 1555.99 1402.64 1559.41 1406.2C1562.84 1409.76 1566.76 1412.58 1571.17 1414.59C1575.59 1416.62 1580.32 1417.63 1585.39 1417.63Z" fill="white"/>
<path d="M1692.8 1430.55C1686.16 1430.55 1680.23 1429.39 1675.03 1427.06C1669.82 1424.74 1665.41 1421.47 1661.79 1417.27C1658.17 1413.06 1655.42 1408.06 1653.52 1402.26C1651.65 1396.48 1650.71 1390.15 1650.71 1383.33V1333.12C1650.71 1331.73 1650.88 1330.55 1651.23 1329.56C1651.58 1328.57 1652.22 1327.8 1653.16 1327.26C1654.1 1326.72 1655.56 1326.45 1657.54 1326.45C1659.53 1326.45 1661.02 1326.72 1662 1327.26C1662.99 1327.8 1663.63 1328.58 1663.93 1329.56C1664.22 1330.55 1664.38 1331.78 1664.38 1333.27V1383.33C1664.38 1389.96 1665.47 1395.8 1667.65 1400.85C1669.82 1405.89 1673.04 1409.89 1677.32 1412.8C1681.58 1415.72 1686.89 1417.18 1693.24 1417.18C1699.19 1417.18 1704.3 1415.79 1708.56 1413.03C1712.83 1410.25 1716.1 1406.34 1718.38 1401.29C1720.65 1396.23 1721.8 1390.21 1721.8 1383.17V1332.21C1721.8 1331.03 1721.98 1330.01 1722.32 1329.17C1722.67 1328.34 1723.33 1327.66 1724.32 1327.18C1725.32 1326.69 1726.79 1326.45 1728.8 1326.45C1730.67 1326.45 1732.08 1326.72 1733.04 1327.26C1733.98 1327.8 1734.61 1328.58 1734.9 1329.56C1735.2 1330.55 1735.34 1331.78 1735.34 1333.27V1383.62C1735.34 1390.55 1734.4 1396.86 1732.52 1402.56C1730.64 1408.25 1727.87 1413.2 1724.25 1417.41C1720.64 1421.63 1716.17 1424.86 1710.86 1427.13C1705.55 1429.41 1699.54 1430.54 1692.79 1430.54L1692.8 1430.55Z" fill="white"/>
<path d="M1763.9 1430.1C1762.02 1430.1 1760.58 1429.82 1759.59 1429.29C1758.59 1428.75 1757.97 1427.95 1757.72 1426.91C1757.48 1425.86 1757.36 1424.65 1757.36 1423.28V1332.98C1757.36 1331.69 1757.53 1330.56 1757.88 1329.64C1758.23 1328.7 1758.87 1327.94 1759.81 1327.33C1760.75 1326.74 1762.18 1326.45 1764.06 1326.45H1796.93C1801.79 1326.45 1806.22 1327.16 1810.24 1328.6C1814.26 1330.04 1817.76 1332.14 1820.73 1334.9C1823.71 1337.68 1826.02 1341.17 1827.65 1345.38C1829.29 1349.58 1830.11 1354.46 1830.11 1360C1830.11 1363.48 1829.57 1367.05 1828.47 1370.77C1827.38 1374.49 1825.72 1377.98 1823.5 1381.24C1821.27 1384.51 1818.42 1387.24 1814.94 1389.41C1811.46 1391.6 1807.25 1392.83 1802.29 1393.12H1770.75V1423.42C1770.75 1424.81 1770.58 1425.99 1770.23 1426.98C1769.88 1427.97 1769.24 1428.73 1768.3 1429.27C1767.36 1429.81 1765.9 1430.09 1763.92 1430.09L1763.9 1430.1ZM1770.75 1380.05H1800.22C1802.5 1380.05 1804.64 1379.63 1806.62 1378.8C1808.61 1377.96 1810.35 1376.69 1811.82 1375.01C1813.3 1373.32 1814.5 1371.24 1815.39 1368.77C1816.28 1366.31 1816.73 1363.32 1816.73 1359.86C1816.73 1355.61 1815.96 1352 1814.42 1349.03C1812.89 1346.06 1810.62 1343.8 1807.65 1342.27C1804.67 1340.74 1801 1339.98 1796.64 1339.98H1770.75V1380.08V1380.05ZM1827.72 1428.47C1825.64 1429.86 1823.88 1430.29 1822.44 1429.81C1820.99 1429.3 1819.63 1428.12 1818.35 1426.25L1794.55 1388.23L1809.28 1386L1829.81 1418.67C1830.8 1420.25 1831.43 1421.59 1831.67 1422.69C1831.92 1423.78 1831.72 1424.75 1831.08 1425.66C1830.44 1426.54 1829.32 1427.48 1827.74 1428.47H1827.72Z" fill="white"/>
<path d="M1893.48 1430.1C1891.6 1430.1 1890.17 1429.82 1889.24 1429.29C1888.3 1428.75 1887.67 1427.95 1887.37 1426.91C1887.08 1425.86 1886.92 1424.65 1886.92 1423.28V1333.12C1886.92 1331.83 1887.1 1330.68 1887.44 1329.69C1887.79 1328.7 1888.45 1327.92 1889.44 1327.31C1890.44 1326.72 1891.83 1326.43 1893.6 1326.43H1926.18C1930.95 1326.43 1935.33 1327.14 1939.35 1328.58C1943.37 1330.02 1946.88 1332.2 1949.91 1335.11C1952.94 1338.03 1955.29 1341.57 1956.97 1345.73C1958.66 1349.88 1959.5 1354.69 1959.5 1360.14C1959.5 1365.6 1958.64 1370.23 1956.97 1374.4C1955.29 1378.55 1952.9 1382.04 1949.84 1384.87C1946.76 1387.69 1943.21 1389.84 1939.2 1391.34C1935.18 1392.81 1930.79 1393.56 1926.03 1393.56H1900.44V1423.42C1900.44 1424.8 1900.26 1425.99 1899.92 1426.98C1899.57 1427.97 1898.92 1428.73 1897.99 1429.27C1897.05 1429.81 1895.53 1430.08 1893.45 1430.08L1893.48 1430.1ZM1900.47 1380.05H1926.22C1930.18 1380.05 1933.66 1379.28 1936.64 1377.75C1939.61 1376.22 1941.94 1373.93 1943.63 1370.93C1945.32 1367.91 1946.15 1364.22 1946.15 1359.86C1946.15 1355.5 1945.35 1352.15 1943.77 1349.18C1942.19 1346.19 1939.87 1343.94 1936.85 1342.34C1933.82 1340.76 1930.24 1339.98 1926.06 1339.98H1900.47V1380.08V1380.05Z" fill="white"/>
<path d="M2067.7 1420.6C2068.5 1422.08 2068.91 1423.35 2068.97 1424.39C2069.02 1425.43 2068.69 1426.37 2068.01 1427.2C2067.31 1428.05 2066.22 1428.82 2064.74 1429.51C2062.36 1430.59 2060.5 1430.85 2059.16 1430.24C2057.82 1429.65 2056.6 1428.21 2055.5 1425.93L2018.31 1346.91L1981.41 1425.78C1980.32 1428.05 1979.1 1429.49 1977.76 1430.08C1976.42 1430.69 1974.51 1430.43 1972.04 1429.36C1970.56 1428.75 1969.48 1428.02 1968.84 1427.13C1968.19 1426.25 1967.95 1425.15 1968.09 1423.87C1968.23 1422.58 1968.72 1421.09 1969.5 1419.4L2012.2 1330.44C2012.8 1329.26 2013.67 1328.29 2014.81 1327.54C2015.94 1326.81 2017.16 1326.43 2018.45 1326.43C2019.34 1326.43 2020.19 1326.57 2020.97 1326.86C2021.77 1327.16 2022.45 1327.61 2023.06 1328.2C2023.65 1328.81 2024.16 1329.59 2024.54 1330.58L2067.68 1420.58L2067.7 1420.6ZM1990.34 1400.54L1995.4 1389.11H2041.52L2046.42 1400.54H1990.34Z" fill="white"/>
<path d="M2111.13 1431.6C2107.36 1431.6 2103.81 1431.16 2100.51 1430.26C2097.18 1429.37 2094.16 1428.16 2091.42 1426.63C2088.69 1425.1 2086.29 1423.38 2084.21 1421.51C2082.12 1419.63 2080.48 1417.74 2079.3 1415.86C2078.2 1414.28 2077.53 1412.96 2077.21 1411.92C2076.92 1410.88 2076.99 1409.87 2077.44 1408.88C2077.87 1407.89 2078.8 1406.81 2080.19 1405.61C2081.77 1404.43 2083.16 1403.86 2084.34 1403.91C2085.53 1403.96 2086.64 1404.43 2087.68 1405.33C2088.73 1406.22 2089.79 1407.4 2090.89 1408.9C2093.36 1412.26 2096.38 1414.71 2099.97 1416.24C2103.53 1417.79 2107.06 1418.55 2110.53 1418.55C2115 1418.55 2118.96 1417.94 2122.42 1416.76C2125.9 1415.58 2128.65 1413.78 2130.69 1411.34C2132.72 1408.91 2133.73 1405.77 2133.73 1401.91C2133.73 1398.75 2132.93 1396.08 2131.35 1393.89C2129.76 1391.72 2127.63 1389.86 2124.95 1388.33C2122.27 1386.8 2119.29 1385.47 2116.02 1384.32C2112.75 1383.17 2109.43 1382.06 2106.05 1380.98C2103.38 1380.08 2100.75 1379.07 2098.17 1377.94C2095.6 1376.82 2093.16 1375.51 2090.89 1374.09C2088.61 1372.65 2086.59 1370.94 2084.87 1368.96C2083.13 1366.98 2081.79 1364.66 2080.85 1361.98C2079.91 1359.31 2079.44 1356.2 2079.44 1352.62C2079.44 1347.17 2080.74 1342.37 2083.37 1338.2C2086 1334.04 2089.7 1330.81 2094.45 1328.48C2099.2 1326.15 2104.72 1324.99 2110.96 1324.99C2114.63 1324.99 2118.01 1325.33 2121.08 1326.01C2124.16 1326.71 2126.88 1327.63 2129.26 1328.76C2131.64 1329.9 2133.68 1331.08 2135.37 1332.32C2137.05 1333.55 2138.34 1334.71 2139.23 1335.81C2141 1337.68 2141.99 1339.26 2142.2 1340.55C2142.39 1341.83 2141.66 1343.42 2139.98 1345.31C2138.39 1347.08 2136.84 1348.04 2135.37 1348.12C2133.89 1348.21 2132.23 1347.51 2130.46 1346.04C2128.58 1343.87 2126.62 1342.18 2124.58 1340.98C2122.55 1339.8 2120.42 1338.99 2118.18 1338.53C2115.95 1338.1 2113.5 1337.87 2110.82 1337.87C2108.14 1337.87 2105.83 1338.2 2103.6 1338.83C2101.38 1339.47 2099.44 1340.45 2097.81 1341.73C2096.17 1343.02 2094.9 1344.58 2094.02 1346.4C2093.13 1348.23 2092.68 1350.33 2092.68 1352.71C2092.68 1355.38 2093.39 1357.66 2094.83 1359.53C2096.28 1361.43 2098.17 1363.02 2100.56 1364.36C2102.94 1365.7 2105.62 1366.88 2108.59 1367.92C2111.57 1368.96 2114.7 1369.97 2117.97 1370.96C2121.54 1372.06 2125.07 1373.36 2128.53 1374.89C2132.01 1376.42 2135.12 1378.29 2137.91 1380.53C2140.67 1382.76 2142.92 1385.55 2144.6 1388.92C2146.29 1392.29 2147.13 1396.44 2147.13 1401.39C2147.13 1406.34 2146.17 1410.7 2144.22 1414.47C2142.27 1418.24 2139.63 1421.37 2136.25 1423.9C2132.88 1426.44 2129.03 1428.33 2124.72 1429.62C2120.41 1430.9 2115.87 1431.54 2111.1 1431.54L2111.13 1431.6Z" fill="white"/>
<path d="M2193.55 1431.6C2189.78 1431.6 2186.23 1431.16 2182.93 1430.26C2179.6 1429.37 2176.58 1428.16 2173.84 1426.63C2171.11 1425.1 2168.71 1423.38 2166.63 1421.51C2164.54 1419.63 2162.9 1417.74 2161.72 1415.86C2160.62 1414.28 2159.95 1412.96 2159.63 1411.92C2159.34 1410.88 2159.41 1409.87 2159.86 1408.88C2160.29 1407.89 2161.22 1406.81 2162.61 1405.61C2164.19 1404.43 2165.58 1403.86 2166.76 1403.91C2167.95 1403.96 2169.06 1404.43 2170.1 1405.33C2171.15 1406.22 2172.21 1407.4 2173.31 1408.9C2175.78 1412.26 2178.8 1414.71 2182.39 1416.24C2185.95 1417.79 2189.48 1418.55 2192.95 1418.55C2197.42 1418.55 2201.38 1417.94 2204.84 1416.76C2208.32 1415.58 2211.07 1413.78 2213.11 1411.34C2215.14 1408.91 2216.15 1405.77 2216.15 1401.91C2216.15 1398.75 2215.35 1396.08 2213.77 1393.89C2212.18 1391.72 2210.05 1389.86 2207.37 1388.33C2204.69 1386.8 2201.71 1385.47 2198.44 1384.32C2195.17 1383.17 2191.85 1382.06 2188.47 1380.98C2185.8 1380.08 2183.17 1379.07 2180.59 1377.94C2178.02 1376.82 2175.58 1375.51 2173.31 1374.09C2171.03 1372.65 2169.01 1370.94 2167.29 1368.96C2165.55 1366.98 2164.21 1364.66 2163.27 1361.98C2162.33 1359.31 2161.86 1356.2 2161.86 1352.62C2161.86 1347.17 2163.16 1342.37 2165.79 1338.2C2168.42 1334.04 2172.12 1330.81 2176.87 1328.48C2181.62 1326.15 2187.14 1324.99 2193.38 1324.99C2197.05 1324.99 2200.43 1325.33 2203.5 1326.01C2206.58 1326.71 2209.3 1327.63 2211.68 1328.76C2214.06 1329.9 2216.1 1331.08 2217.79 1332.32C2219.47 1333.55 2220.76 1334.71 2221.65 1335.81C2223.42 1337.68 2224.41 1339.26 2224.62 1340.55C2224.81 1341.83 2224.08 1343.42 2222.4 1345.31C2220.81 1347.08 2219.26 1348.04 2217.79 1348.12C2216.31 1348.21 2214.65 1347.51 2212.88 1346.04C2211 1343.87 2209.04 1342.18 2207 1340.98C2204.97 1339.8 2202.84 1338.99 2200.6 1338.53C2198.37 1338.1 2195.92 1337.87 2193.24 1337.87C2190.56 1337.87 2188.25 1338.2 2186.02 1338.83C2183.8 1339.47 2181.86 1340.45 2180.23 1341.73C2178.59 1343.02 2177.32 1344.58 2176.44 1346.4C2175.55 1348.23 2175.1 1350.33 2175.1 1352.71C2175.1 1355.38 2175.81 1357.66 2177.25 1359.53C2178.7 1361.43 2180.59 1363.02 2182.98 1364.36C2185.36 1365.7 2188.04 1366.88 2191.01 1367.92C2193.99 1368.96 2197.12 1369.97 2200.39 1370.96C2203.96 1372.06 2207.49 1373.36 2210.95 1374.89C2214.43 1376.42 2217.54 1378.29 2220.33 1380.53C2223.09 1382.76 2225.34 1385.55 2227.02 1388.92C2228.71 1392.29 2229.55 1396.44 2229.55 1401.39C2229.55 1406.34 2228.59 1410.7 2226.64 1414.47C2224.69 1418.24 2222.05 1421.37 2218.67 1423.9C2215.3 1426.44 2211.45 1428.33 2207.14 1429.62C2202.83 1430.9 2198.29 1431.54 2193.52 1431.54L2193.55 1431.6Z" fill="white"/>
<path d="M2251.72 1430.1C2249.74 1430.1 2248.28 1429.82 2247.34 1429.29C2246.4 1428.75 2245.78 1427.95 2245.48 1426.91C2245.18 1425.86 2245.04 1424.65 2245.04 1423.28V1333.12C2245.04 1331.73 2245.22 1330.55 2245.57 1329.56C2245.91 1328.57 2246.56 1327.8 2247.5 1327.26C2248.44 1326.72 2249.9 1326.45 2251.88 1326.45C2253.86 1326.45 2255.33 1326.72 2256.27 1327.26C2257.2 1327.8 2257.8 1328.58 2258.06 1329.56C2258.3 1330.55 2258.42 1331.78 2258.42 1333.27V1423.43C2258.42 1424.82 2258.28 1426 2257.99 1426.99C2257.69 1427.98 2257.07 1428.75 2256.13 1429.29C2255.19 1429.82 2253.73 1430.1 2251.74 1430.1H2251.72Z" fill="white"/>
<path d="M2323.12 1431.14C2316.07 1431.14 2309.46 1429.81 2303.25 1427.13C2297.04 1424.46 2291.6 1420.72 2286.88 1415.91C2282.17 1411.12 2278.48 1405.6 2275.8 1399.34C2273.12 1393.11 2271.78 1386.37 2271.78 1379.14C2271.78 1371.92 2273.07 1364.9 2275.64 1358.42C2278.22 1351.94 2281.82 1346.26 2286.43 1341.42C2291.04 1336.56 2296.38 1332.75 2302.42 1329.97C2308.47 1327.21 2314.91 1325.82 2321.76 1325.82C2328.61 1325.82 2335.57 1327.16 2341.77 1329.83C2347.96 1332.51 2353.37 1336.26 2357.98 1341.05C2362.59 1345.86 2366.24 1351.47 2368.92 1357.92C2371.6 1364.36 2372.94 1371.24 2372.94 1378.57C2372.94 1385.9 2371.62 1392.55 2369.01 1398.86C2366.38 1405.14 2362.78 1410.74 2358.22 1415.63C2353.66 1420.53 2348.38 1424.34 2342.37 1427.06C2336.37 1429.79 2329.95 1431.14 2323.12 1431.14ZM2322.23 1417.63C2327.38 1417.63 2332.21 1416.64 2336.74 1414.66C2341.26 1412.68 2345.19 1409.89 2348.57 1406.27C2351.94 1402.66 2354.59 1398.49 2356.52 1393.8C2358.45 1389.11 2359.42 1383.97 2359.42 1378.43C2359.42 1372.89 2358.46 1368.06 2356.52 1363.35C2354.59 1358.65 2351.91 1354.5 2348.48 1350.88C2345.05 1347.27 2341.12 1344.42 2336.65 1342.34C2332.18 1340.27 2327.43 1339.23 2322.37 1339.23C2317.31 1339.23 2312.56 1340.27 2308.09 1342.34C2303.62 1344.42 2299.68 1347.24 2296.26 1350.81C2292.83 1354.38 2290.15 1358.53 2288.22 1363.29C2286.29 1368.03 2285.32 1373.13 2285.32 1378.59C2285.32 1384.04 2286.27 1388.99 2288.22 1393.73C2290.15 1398.49 2292.83 1402.64 2296.26 1406.2C2299.68 1409.76 2303.6 1412.58 2308.02 1414.59C2312.44 1416.62 2317.17 1417.63 2322.23 1417.63Z" fill="white"/>
<path d="M2392.89 1430.1C2391.2 1430.1 2389.88 1429.81 2388.94 1429.2C2388 1428.61 2387.36 1427.79 2387.01 1426.75C2386.66 1425.71 2386.49 1424.49 2386.49 1423.12V1332.65C2386.49 1331.36 2386.68 1330.28 2387.08 1329.38C2387.48 1328.48 2388.19 1327.77 2389.24 1327.23C2390.28 1326.69 2391.74 1326.41 2393.62 1326.41C2395.8 1326.41 2397.34 1326.6 2398.23 1327C2399.14 1327.4 2400.02 1328.1 2400.91 1329.09L2456.85 1408.11V1332.65C2456.85 1331.36 2457.03 1330.28 2457.38 1329.38C2457.72 1328.48 2458.4 1327.77 2459.38 1327.23C2460.35 1326.69 2461.81 1326.41 2463.69 1326.41C2465.47 1326.41 2466.84 1326.71 2467.78 1327.3C2468.72 1327.9 2469.36 1328.72 2469.71 1329.76C2470.06 1330.81 2470.23 1331.97 2470.23 1333.25V1423.26C2470.23 1424.54 2470.01 1425.71 2469.57 1426.75C2469.14 1427.79 2468.39 1428.61 2467.34 1429.2C2466.3 1429.81 2464.84 1430.1 2462.96 1430.1C2461.38 1430.1 2460.06 1429.91 2459.01 1429.51C2457.97 1429.11 2457.01 1428.37 2456.11 1427.29L2399.87 1348.85V1423.28C2399.87 1424.56 2399.66 1425.73 2399.28 1426.77C2398.87 1427.81 2398.18 1428.63 2397.19 1429.22C2396.2 1429.82 2394.75 1430.12 2392.87 1430.12L2392.89 1430.1Z" fill="white"/>
<path d="M1494.48 596.875L1497.61 611.864C1494.02 611.291 1490.35 610.683 1486.6 610.058L1494.48 596.892V596.875Z" fill="white"/>
<path d="M1485.85 555.503L1456.75 415.928L1356.63 585.551C1328.47 579.68 1298.15 573.028 1265.69 565.473L1424.15 300.896C1446.03 264.369 1499.03 264.369 1520.92 300.896L1557.33 440.436L1485.81 555.503H1485.85Z" fill="white"/>
<path d="M1566.72 476.267L1671.76 300.896C1693.64 264.369 1746.64 264.369 1768.53 300.896L2102.91 859.212H1985.42L1724.72 415.929L1604.24 620.063L1600.71 626.037C1600.71 626.037 1564.49 622.737 1497.59 611.847L1494.46 596.858L1566.7 476.25L1566.72 476.267Z" fill="white"/>
<path d="M1007.82 451.569L990.438 492.055C960.917 483.232 930.544 473.87 899.319 463.883L970.154 300.878C992.038 264.352 1039.95 264.352 1061.83 300.878L1125.93 530.44C1092.41 521.478 1057.38 511.699 1020.91 501.052L1007.83 451.551L1007.82 451.569Z" fill="white"/>
<path d="M832.904 859.211H727.556L857.275 560.661C890.901 573.774 921.83 584.665 947.141 593.002L832.904 859.211Z" fill="white"/>
<path d="M1159.02 649.016L1177.04 713.54L1209.68 659.055C1238.78 664.422 1270.39 669.58 1304.34 674.2L1210.48 833.263L1206.79 839.515C1199.59 851.726 1186.45 859.212 1172.26 859.212H1146.41C1128.21 859.212 1112.29 846.967 1107.67 829.407L1053.31 623.675C1081.09 631.091 1116.59 640.053 1159.04 649.033L1159.02 649.016Z" fill="white"/>
<path d="M511.241 279.376C528.793 93.305 886.969 121.738 886.969 121.738C710.734 151.056 574.874 212.159 574.874 268.381C574.874 324.586 638.872 384.213 773.149 441.912C811.402 458.343 850.142 473.558 889.004 487.644C919.046 498.551 949.158 508.764 979.166 518.351C996.022 523.736 1012.83 528.929 1029.58 533.914C1065.13 544.526 1100.4 554.287 1135.07 563.232C1174.48 573.41 1213.14 582.546 1250.57 590.761C1282.15 597.691 1312.85 603.962 1342.44 609.641C1389.2 618.603 1433.16 626.089 1473.25 632.307C1483.34 633.87 1493.19 635.364 1502.77 636.771C1533.98 641.374 1562.44 645.16 1587.58 648.304C1596.26 649.381 1604.52 650.388 1612.38 651.309C1656.39 656.502 1687.29 659.402 1700.84 660.948C1765.55 668.278 1836.23 678.369 1836.23 678.369C1761.43 687.175 1690.25 691.587 1623.2 692.785C1602.12 693.167 1581.45 693.202 1561.22 692.976L1526.69 751.491L1463.11 859.229H1337.36L1439.85 688.095C1391.36 684.726 1346.07 679.897 1304.32 674.218C1270.39 669.598 1238.76 664.439 1209.66 659.072C1191.83 655.772 1174.92 652.42 1159 649.051C1116.54 640.071 1081.05 631.126 1053.27 623.692C1030.45 617.596 1012.81 612.524 1000.77 609.346C989.412 606.341 970.711 600.8 947.106 593.037C921.812 584.717 890.865 573.827 857.24 560.696C705.811 501.608 500.073 397.396 511.206 279.41L511.241 279.376Z" fill="white"/>
<path d="M1507.12 15.4932L1385.16 72.7577C1383.75 73.4351 1382.29 73.5914 1380.76 73.2614C1336.68 62.9618 1292.6 52.6795 1248.5 42.432C1235.02 39.2536 1222.2 37.7598 1208.04 42.6231C1196.94 46.4963 1180.1 50.5606 1171.6 58.6717C1170.43 59.7833 1169.82 61.1381 1169.77 62.7534C1169.06 91.6896 1226.43 110.291 1250.24 116.405C1269.85 121.39 1290.37 127.035 1311.79 133.374L1396.35 151.629C1397.91 151.959 1399.08 152.845 1399.84 154.286L1414.13 181.156C1414.89 182.58 1416.06 183.5 1417.62 183.9L1472.44 198.021C1473.46 198.316 1474.54 197.743 1474.85 196.701C1474.99 196.197 1474.94 195.659 1474.68 195.207L1460.85 169.223C1459.82 167.33 1460.36 166.601 1462.5 167.035C1495.42 174.365 1528.26 182.007 1561.07 189.979C1575.61 193.522 1589.66 195.311 1603.25 195.346C1648.2 195.45 1693.05 193.053 1737.77 188.173C1748.47 186.974 1764.2 175.441 1754.85 163.943C1750.23 158.246 1738.42 156.961 1731 155.12C1730.36 154.964 1729.98 154.321 1730.15 153.661C1730.19 153.522 1730.26 153.366 1730.34 153.244L1767.85 102.215L1773.19 94.5728C1774.44 92.8012 1774.01 90.3348 1772.23 89.0843C1771.81 88.789 1771.34 88.5806 1770.84 88.459L1738.76 80.9558C1734.9 80.07 1730.87 80.6952 1727.51 82.7447L1645.28 132.836C1643.43 133.965 1641.49 134.278 1639.42 133.809L1490.56 99.0018C1490.02 98.8629 1489.71 98.3244 1489.83 97.8034C1489.88 97.595 1490.01 97.4039 1490.18 97.2649C1526.64 69.7877 1562.96 42.5189 1599.15 15.4585C1600.14 14.7116 1600.68 12.8184 1600.75 9.81364C1575.17 2.08457 1553.71 -4.61974 1537.48 4.04723C1525.16 10.5952 1515.04 14.399 1507.12 15.4758V15.4932Z" fill="white"/>
<path d="M1622.3 136.327C1531.53 126.409 1448.27 120.226 1393.1 116.718L1393.04 151.16C1501.02 174.885 1650.85 209.362 1757.99 240.105C1944.24 293.566 2276.32 410.526 2258.7 520.47C2248.51 574.521 2158.49 612.733 2158.47 626.558C2158.47 626.558 2299.08 605.785 2308.28 510.483C2328.82 297.89 1801.27 155.867 1622.3 136.327Z" fill="white"/>
</g>
<defs>
<clipPath id="clip0_2122_15123">
<rect width="2833" height="1442" fill="white"/>
</clipPath>
</defs>
</svg>
